<svg xmlns="http://www.w3.org/2000/svg" xmlns:xlink="http://www.w3.org/1999/xlink" width="400" height="400" viewBox="0 0 400 400">
<rect data-name="background" width="100%" height="100%" fill="#ffffff"/><g data-name="watermark" class="watermark-logodesign" stroke="#ffffff" transform="translate(40, 280) scale(1.5) rotate(-45)" style="opacity:0.040000010281801224;"><path fill="#000000" d="M19.52,53.48c-10.32,0-17.72-7.64-17.72-17.32c0-10,8.2-17.76,18.32-17.76c10.36,0,17.76,7.48,17.76,17.56c0,6.24-3.56,9.84-7.84,9.84c-2.96,0-4.44-1.56-5.04-3.72c-1.48,2-3.64,3.08-6.16,3.08c-4.84,0-8.52-3.8-8.52-8.96c0-5.2,3.64-9,8.56-9c2.36,0,4.52,0.96,6,3l0-2.52l3.44,0l0,12.48c0,1.68,0.6,2.96,2.24,2.96c2.12,0,4.2-2.52,4.2-7.12c0-8.28-5.76-14.68-14.6-14.68c-8.48,0-15.24,6.44-15.24,14.84c0,8.16,6.24,14.4,14.68,14.4c2.88,0,6.04-0.68,8.2-2.4l0.8,2.88c-2.36,1.68-5.68,2.44-9.08,2.44z M19.36,41.92c3.24,0,5.64-2.4,5.64-5.76c0-3.32-2.36-5.68-5.64-5.68c-3.2,0-5.48,2.36-5.48,5.68s2.32,5.76,5.48,5.76z M46.84,42.4l14.72,0l0,4l-19.08,0l0-28l4.36,0l0,24z M74.8,46.92c-6.16,0-10.68-4.56-10.68-10.6c0-6,4.52-10.56,10.68-10.56s10.68,4.56,10.68,10.56c0,6.04-4.52,10.6-10.68,10.6z M74.8,43.12c3.84,0,6.6-2.92,6.6-6.76c0-3.88-2.76-6.8-6.6-6.8s-6.6,2.92-6.6,6.8c0,3.84,2.76,6.76,6.6,6.76z M105.68,26.28l4.2,0l0,19.4c0,5.6-4.08,9.64-10.2,9.64c-4.84,0-7.92-2.24-9.6-5.24l3.68-1.36c1.2,2,3.12,3.08,6,3.08c3.84,0,5.88-2.64,5.92-6.08l0-2.96c-1.56,2.12-4,3.4-7.08,3.4c-5.84,0-10.04-4.44-10.04-10.2c0-5.96,4.2-10.2,10.04-10.2c3.08,0,5.52,1.28,7.08,3.36l0-2.84z M99.24,42.4c3.72,0,6.56-2.72,6.56-6.44s-2.84-6.4-6.56-6.4c-3.88,0-6.56,2.68-6.56,6.4s2.68,6.44,6.56,6.44z M124.92,46.92c-6.16,0-10.68-4.56-10.68-10.6c0-6,4.52-10.56,10.68-10.56s10.68,4.56,10.68,10.56c0,6.04-4.52,10.6-10.68,10.6z M124.92,43.12c3.84,0,6.6-2.92,6.6-6.76c0-3.88-2.76-6.8-6.6-6.8s-6.6,2.92-6.6,6.8c0,3.84,2.76,6.76,6.6,6.76z M141.88,46.68c-1.56,0-2.76-1.2-2.76-2.72c0-1.48,1.2-2.68,2.76-2.68s2.76,1.2,2.76,2.68c0,1.52-1.2,2.72-2.76,2.72z M158.2,46.92c-5.68,0-10-4.52-10-10.6c0-6.04,4.32-10.56,10-10.56c3.24,0,5.72,1.4,7.24,3.56l0-3.04l4.16,0l0,20.12l-4.16,0l0-3.04c-1.52,2.16-4,3.56-7.24,3.56z M158.88,43.16c3.68,0,6.64-2.88,6.64-6.84c0-3.92-2.96-6.8-6.64-6.8c-3.84,0-6.56,2.84-6.56,6.8s2.72,6.84,6.56,6.84z M186.6,25.76c5.68,0,10.04,4.52,10.04,10.56c0,6.08-4.36,10.6-10.04,10.6c-3.2,0-5.68-1.4-7.2-3.56l0,11.44l-4.2,0l0-28.52l4.2,0l0,3.04c1.52-2.16,4-3.56,7.2-3.56z M185.92,43.16c3.84,0,6.56-2.88,6.56-6.84s-2.72-6.8-6.56-6.8c-3.68,0-6.64,2.88-6.64,6.8c0,3.96,2.96,6.84,6.64,6.84z M212.36,25.76c5.68,0,10.04,4.52,10.04,10.56c0,6.08-4.36,10.6-10.04,10.6c-3.2,0-5.68-1.4-7.2-3.56l0,11.44l-4.2,0l0-28.52l4.2,0l0,3.04c1.52-2.16,4-3.56,7.2-3.56z M211.68,43.16c3.84,0,6.56-2.88,6.56-6.84s-2.72-6.8-6.56-6.8c-3.68,0-6.64,2.88-6.64,6.8c0,3.96,2.96,6.84,6.64,6.84z"/></g><g data-name="icon" fill="#101820" data="id:831621" transform="translate(13.7008821040043,146.83301288866505) scale(0.08351218575432805)">
  
<g>
    <path d="M559,1102.5l10.6-10.6L36.7,559L559,36.7L1081.2,559l-532.8,532.8L559,1102.5l10.6-10.6L559,1102.5l10.6,10.6l543.4-543.4   c2.8-2.8,4.4-6.7,4.4-10.6c0-4-1.6-7.8-4.4-10.6L569.6,4.9c-5.9-5.9-15.4-5.9-21.2,0L4.9,548.4c-5.9,5.9-5.9,15.4,0,21.2   l543.5,543.5c2.8,2.8,6.7,4.4,10.6,4.4s7.8-1.6,10.6-4.4L559,1102.5z"/>
    <path d="M559,937.8l10.6,10.6l378.8-378.7c2.8-2.8,4.4-6.7,4.4-10.6c0-4-1.6-7.8-4.4-10.6L569.6,169.6c-2.8-2.8-6.7-4.4-10.6-4.4   c-4,0-7.8,1.6-10.6,4.4L169.7,548.4c-5.9,5.9-5.9,15.4,0,21.2l378.7,378.8c2.8,2.8,6.7,4.4,10.6,4.4c4,0,7.8-1.6,10.6-4.4   L559,937.8l10.6-10.6L201.5,559L559,201.5L916.6,559L548.4,927.2L559,937.8l10.6-10.6L559,937.8z M773.1,559l-10.6-10.6L559,751.9   L366.2,559L559,366.2l203.4,203.5L773.1,559l-10.6-10.6L773.1,559l10.6-10.6l-214-214.1c-2.8-2.8-6.7-4.4-10.6-4.4   c-4,0-7.8,1.6-10.6,4.4L334.4,548.4c-5.9,5.9-5.9,15.4,0,21.2l214,214c5.9,5.9,15.4,5.9,21.2,0l214.1-214c5.9-5.9,5.9-15.4,0-21.2   L773.1,559z"/>
    <path d="M509.7,559l10.6,10.6l38.8-38.8l28.2,28.2l-28.2,28.2l-38.8-38.8L509.7,559l10.6,10.6L509.7,559l-10.6,10.6l49.4,49.4   c2.8,2.8,6.7,4.4,10.6,4.4c4,0,7.8-1.6,10.6-4.4l49.4-49.4c2.8-2.8,4.4-6.7,4.4-10.6c0-4-1.6-7.8-4.4-10.6l-49.4-49.4   c-5.9-5.9-15.4-5.9-21.2,0l-49.4,49.4c-5.9,5.9-5.9,15.4,0,21.2L509.7,559z"/>
    <path d="M559,1102.4l10.6-10.6L103.8,626.1c-5.9-5.9-15.4-5.9-21.2,0L5,703.7c-2.8,2.8-4.4,6.7-4.4,10.6c0,4,1.6,7.8,4.4,10.6   l543.4,543.5c2.8,2.8,6.7,4.4,10.6,4.4c4,0,7.8-1.6,10.6-4.4l543.5-543.5c2.8-2.8,4.4-6.7,4.4-10.6c0-4-1.6-7.8-4.4-10.6   l-77.6-77.6c-5.9-5.9-15.4-5.9-21.2,0l-465.8,465.8L559,1102.4l10.6-10.6L559,1102.4l10.6,10.6l455.2-455.2l56.4,56.4L559,1236.5   L36.8,714.3l56.4-56.4l455.2,455.2c5.9,5.9,15.4,5.9,21.2,0L559,1102.4z"/>
</g>

  </g><g data-name="business_name" fill="#101820" data="id:240" transform="translate(123.6246048448981,147.2247171656178) scale(2.234347294245681)"><path d="M20.56,10.4c0.28,0,0.44,0.32,0.28,0.56l-6.28,8.68l6.64,16.72c0.08,0.2-0.04,0.44-0.32,0.44l-5.4,0c-0.12,0-0.24-0.08-0.28-0.24l-4.16-11.96l-2.04,2.8l0,9.04c0,0.2-0.16,0.36-0.36,0.36l-4.56,0c-0.2,0-0.32-0.16-0.32-0.36l0-25.68c0-0.2,0.12-0.36,0.32-0.36l4.56,0c0.2,0,0.36,0.16,0.36,0.36l0,8.28l6.28-8.48c0.12-0.16,0.16-0.16,0.32-0.16l4.96,0z M6.16,12.8l0,21.56c0,0.28,0.44,0.28,0.44,0l0-7.76l5-6.64l5.6,14.48c0.08,0.2,0.56,0.08,0.44-0.24l-5.68-14.76l5.2-6.92c0.2-0.2-0.16-0.56-0.4-0.32l-10.16,13.6l0-13c0-0.28-0.44-0.28-0.44,0z M35.68,10.04c3.44,0,5.84,0.76,7.36,2.4c1.2,1.32,1.76,3.2,1.76,5.88l0,10.52c0,2.76-0.56,4.68-1.76,5.96c-1.56,1.6-3.92,2.4-7.36,2.4c-3.56,0-5.88-0.8-7.4-2.4c-1.16-1.28-1.8-3.2-1.8-5.96l0-10.52c0-2.68,0.64-4.56,1.8-5.92c1.56-1.6,3.92-2.36,7.4-2.36z M39.48,27.64l0-8c0-3.52-1.88-4.24-3.6-4.24l-0.48,0c-2.56,0-3.56,1.64-3.56,4.24l0,8c0,3.52,1.88,4.28,3.56,4.28l0.48,0c2.56,0,3.56-1.72,3.6-4.28z M29,18.6l0,9.92c0,1.88,0.48,3.44,1.6,4.6c1.04,1.04,2.64,1.6,4.6,1.6l1.04,0c3.76,0,6.2-2.4,6.2-6.2l0-9.92c0-4.08-2.16-6.28-6.2-6.28l-1.04,0c-4.08,0-6.2,2.2-6.2,6.28z M36.24,34.2l-1.04,0c-1.88,0-3.28-0.48-4.28-1.48s-1.52-2.4-1.52-4.2l0-9.92c0-3.8,2.04-5.8,5.8-5.8l1.04,0c3.8,0,5.68,1.96,5.68,5.8l0,9.92c0,1.68-0.52,3.2-1.6,4.24c-1.04,0.88-2.44,1.44-4.08,1.44z M62.12,10.4c2.72,0,4.76,0.76,6.12,2.24c1.2,1.32,1.8,3.28,1.8,5.68l0,10.6c0,4.84-2.8,7.88-7.92,7.88l-10,0c-0.2,0-0.32-0.16-0.32-0.36l0-25.68c0-0.2,0.12-0.36,0.32-0.36l10,0z M64.8,27.72l0-8.2c0-2.52-1.32-4.12-4.12-4.12l-3.6,0l0,16.4l3.6,0c2.4,0,4.12-1.56,4.12-4.08z M54.24,12.84l0,21.52c0,0.16,0.16,0.2,0.24,0.2l6.52,0c4.6,0,6.68-2.76,6.68-5.32l0-10.24c0-4.24-2.24-6.4-6.8-6.4l-6.4,0c-0.08,0-0.24,0.04-0.24,0.24z M67.2,19l0,10.24c0,3.2-3.2,4.88-6.2,4.88l-6.28,0l0-21l6.16,0c4.2,0,6.32,1.88,6.32,5.88z M82.04,10.64c0.04-0.12,0.12-0.24,0.28-0.24l4.96,0c0.16,0,0.24,0.12,0.28,0.24l6.92,25.72c0.04,0.24-0.12,0.44-0.36,0.44l-4.56,0c-0.12,0-0.24-0.08-0.28-0.24l-1.56-5.6l-5.84,0l-1.52,5.6c-0.04,0.16-0.12,0.24-0.28,0.24l-4.6,0c-0.24,0-0.4-0.2-0.36-0.44z M83.16,26l3.32,0l-1.72-6.04z M89.32,28.36l1.84,6c0.08,0.24,0.52,0.2,0.4-0.12l-6.4-21.28c-0.12-0.52-0.8-0.56-0.92,0l-6.2,21.28c-0.12,0.28,0.32,0.4,0.44,0.16l1.76-6.04l9.08,0z M80.36,27.84l4.36-14.72l4.44,14.72l-8.8,0z M116.88,10.4c0.28,0,0.44,0.32,0.28,0.56l-6.28,8.68l6.64,16.72c0.08,0.2-0.04,0.44-0.32,0.44l-5.4,0c-0.12,0-0.24-0.08-0.28-0.24l-4.16-11.96l-2.04,2.8l0,9.04c0,0.2-0.16,0.36-0.36,0.36l-4.56,0c-0.2,0-0.32-0.16-0.32-0.36l0-25.68c0-0.2,0.12-0.36,0.32-0.36l4.56,0c0.2,0,0.36,0.16,0.36,0.36l0,8.28l6.28-8.48c0.12-0.16,0.16-0.16,0.32-0.16l4.96,0z M102.48,12.8l0,21.56c0,0.28,0.44,0.28,0.44,0l0-7.76l5-6.64l5.6,14.48c0.08,0.2,0.56,0.08,0.44-0.24l-5.68-14.76l5.2-6.92c0.2-0.2-0.16-0.56-0.4-0.32l-10.16,13.6l0-13c0-0.28-0.44-0.28-0.44,0z"/></g></svg>